<svg width="40" height="40" viewBox="0 0 40 40" fill="none" xmlns="http://www.w3.org/2000/svg">
<circle cx="20" cy="20" r="19.5" fill="white" stroke="#EFEFEF"/>
<path d="M16.8867 30.3333C17.7151 30.3333 18.3867 29.6618 18.3867 28.8333C18.3867 28.0049 17.7151 27.3333 16.8867 27.3333C16.0583 27.3333 15.3867 28.0049 15.3867 28.8333C15.3867 29.6618 16.0583 30.3333 16.8867 30.3333Z" fill="#359740"/>
<path d="M26 30.3333C26.8284 30.3333 27.5 29.6618 27.5 28.8333C27.5 28.0049 26.8284 27.3333 26 27.3333C25.1716 27.3333 24.5 28.0049 24.5 28.8333C24.5 29.6618 25.1716 30.3333 26 30.3333Z" fill="#359740"/>
<path d="M30.0534 12.58C29.9914 12.5035 29.9132 12.4417 29.8244 12.3991C29.7356 12.3564 29.6385 12.334 29.5401 12.3333H15.6601L16.0934 13.6667H28.6667L26.8867 21.6667H16.8867L13.8401 12.02C13.8071 11.9176 13.7499 11.8248 13.6733 11.7493C13.5967 11.6739 13.5029 11.6181 13.4001 11.5867L10.6667 10.7467C10.5827 10.7208 10.4944 10.7118 10.4069 10.7201C10.3193 10.7284 10.2343 10.7539 10.1566 10.7951C9.99968 10.8782 9.88223 11.0203 9.83007 11.19C9.77791 11.3597 9.79532 11.5432 9.87846 11.7002C9.9616 11.8571 10.1037 11.9745 10.2734 12.0267L12.6667 12.76L15.7267 22.4267L14.6334 23.32L14.5467 23.4067C14.2763 23.7183 14.123 24.1145 14.1133 24.5271C14.1035 24.9396 14.238 25.3426 14.4934 25.6667C14.6751 25.8876 14.906 26.063 15.1676 26.1788C15.4293 26.2945 15.7143 26.3475 16.0001 26.3333H27.1267C27.3036 26.3333 27.4731 26.2631 27.5981 26.1381C27.7232 26.013 27.7934 25.8435 27.7934 25.6667C27.7934 25.4899 27.7232 25.3203 27.5981 25.1953C27.4731 25.0702 27.3036 25 27.1267 25H15.8934C15.8166 24.9974 15.7418 24.975 15.6762 24.935C15.6106 24.8951 15.5565 24.8389 15.5189 24.7718C15.4814 24.7048 15.4618 24.6293 15.462 24.5524C15.4622 24.4756 15.4822 24.4002 15.5201 24.3333L17.1267 23H27.4201C27.5742 23.0038 27.7248 22.954 27.8464 22.8592C27.9679 22.7644 28.0529 22.6304 28.0867 22.48L30.2001 13.1467C30.2203 13.0473 30.2177 12.9446 30.1923 12.8464C30.1668 12.7482 30.1194 12.6571 30.0534 12.58Z" fill="#359740"/>
</svg>
